# AST/ASF file generated using VICON BodyLanguage
# -----------------------------------------------
:version 1.10
:name VICON
:units
  mass 1.0
  length 0.45
  angle deg
:documentation
   .ast/.asf automatically generated from VICON data using
   VICON BodyBuilder and BodyLanguage model FoxedUp or BRILLIANT.MOD
:root
   order TX TY TZ RX RY RZ
   axis XYZ
   position 0 0 0  
   orientation 0 0 0 
:bonedata
  begin
     id 1 
     name lhipjoint
     direction 0.624716 -0.669793 0.401383 
     length 2.38238 
     axis 0 0 0  XYZ
  end
  begin
     id 2 
     name lfemur
     direction 0.34202 -0.939693 0  
     length 6.4574  
     axis 0 0 20  XYZ
    dof rx ry rz
    limits (-160.0 20.0)
           (-70.0 70.0)
           (-60.0 70.0)
  end
  begin
     id 3 
     name ltibia
     direction 0.34202 -0.939693 0   
     length 7.68739   
     axis 0 0 20   XYZ
    dof rx
    limits (-10.0 170.0)
  end
  begin
     id 4 
     name lfoot
     direction 0.0681309 -0.187188 0.979959   
     length 2.46615   
     axis -90 7.62852e-016 20   XYZ
    dof rx rz
    limits (-45.0 90.0)
           (-70.0 20.0)
  end
  begin
     id 5 
     name ltoes
     direction 1.53566e-011 -4.21819e-011 1   
     length 1.2376   
     axis -90 7.62852e-016 20   XYZ
    dof rx
    limits (-90.0 20.0)
  end
  begin
     id 6 
     name rhipjoint
     direction -0.644473 -0.655875 0.393043   
     length 2.43293  
     axis 0 0 0  XYZ 
  end
  begin
     id 7 
     name rfemur
     direction -0.34202 -0.939693 0   
     length 6.7025   
     axis 0 0 -20   XYZ
    dof rx ry rz
    limits (-160.0 20.0)
           (-70.0 70.0)
           (-70.0 60.0)
  end
  begin
     id 8 
     name rtibia
     direction -0.34202 -0.939693 0   
     length 7.80547   
     axis 0 0 -20   XYZ
    dof rx
    limits (-10.0 170.0)
 end
 begin
     id 9 
     name rfoot
     direction -0.0756734 -0.207911 0.975216   
     length 2.40315  
     axis -90 -7.62852e-016 -20   XYZ
    dof rx rz
    limits (-45.0 90.0)
           (-20.0 70.0)
  end
  begin
     id 10 
     name rtoes
     direction -1.5353e-011 -4.21879e-011 1   
     length 1.20477   
     axis -90 -7.62852e-016 -20   XYZ
    dof rx
    limits (-90.0 20.0)
  end
  begin
     id 11 
     name lowerback
     direction 0.0160353 0.987463 -0.157037   
     length 2.18572   
     axis 0 0 0   XYZ
    dof rx ry rz
    limits (-20.0 45.0)
           (-30.0 30.0)
           (-30.0 30.0)
  end
  begin
     id 12 
     name upperback
     direction -0.00499661 0.999756 0.0215076   
     length 2.18016   
     axis 0 0 0   XYZ
    dof rx ry rz
    limits (-20.0 45.0)
           (-30.0 30.0)
           (-30.0 30.0)
  end
  begin
     id 13 
     name thorax
     direction -0.00921346 0.995333 0.0960619   
     length 2.24923   
     axis 0 0 0   XYZ
    dof rx ry rz
    limits (-20.0 45.0)
           (-30.0 30.0)
           (-30.0 30.0)
  end
  begin
     id 14 
     name lowerneck
     direction 0.0274184 0.991181 0.12965   
     length 1.70911   
     axis 0 0 0   XYZ
    dof rx ry rz
    limits (-20.0 45.0)
           (-30.0 30.0)
           (-30.0 30.0)
  end
  begin
     id 15 
     name upperneck
     direction 0.0015627 0.999959 -0.00893559   
     length 1.69312   
     axis 0 0 0   XYZ
    dof rx ry rz
    limits (-20.0 45.0)
           (-30.0 30.0)
           (-30.0 30.0)
  end
  begin
     id 16
     name head
     direction -0.00230242 0.999856 -0.0168327  
     length 1.80241  
     axis 0 0 0   XYZ
    dof rx ry rz
    limits (-20.0 45.0)
           (-30.0 30.0)
           (-30.0 30.0)
  end
  begin
     id 17 
     name lclavicle
     direction 0.955523 0.290741 -0.0494489  
     length 3.84275  
     axis 0 0 0   XYZ
    dof ry rz
    limits (-20.0 10.0)
           (0.0 20.0)
  end
  begin
     id 18 
     name lhumerus
     direction 1 -4.48967e-011 -3.18382e-028   
     length 5.17714   
     axis 180 -30 -90   XYZ
    dof rx ry rz
    limits (-60.0 90.0)
           (-90.0 90.0)
           (-90.0 90.0)
  end
  begin
     id 19
     name lradius
     direction 1 -4.48968e-011 -2.22911e-027   
     length 3.43679   
     axis 180 -30 -90   XYZ
    dof rx
    limits (-10.0 170.0)
  end
  begin
     id 20
     name lwrist
     direction 1 -4.48951e-011 -6.32245e-027   
     length 1.7184   
     axis 3.57107e-015 90 90   XYZ
    dof ry
    limits (-180.0 0.0)
 end
  begin
     id 21 
     name lhand
     direction 1 -4.48924e-011 -1.26431e-026   
     length 0.573117   
     axis 8.06912e-015 90 90   XYZ
    dof rx rz
    limits (-90.0 90.0)
           (-45.0 45.0)
  end
  begin
     id 22 
     name lfingers
     direction 1 -4.49001e-011 -2.52965e-026   
     length 0.462062   
     axis 1.61381e-014 90 90   XYZ
    dof rx
    limits (0.0 90.0)
  end
  begin
     id 23
     name lthumb
     direction 0.707107 -6.35008e-011 0.707107   
     length 0.663431   
     axis -90 45 -1.62303e-014   XYZ
    dof rx rz
    limits (-45.0 45.0)
           (-45.0 45.0)
  end
  begin
     id 24 
     name rclavicle
     direction -0.963917 0.256881 -0.0698287   
     length 3.73057  
     axis 0 0 0   XYZ 
    dof ry rz
    limits (-10.0 20.0)
           (-20.0 0.0)
  end
  begin
     id 25 
     name rhumerus
     direction -1 -4.48962e-011 -2.73982e-027  
     length 5.23908   
     axis 180 30 90   XYZ
    dof rx ry rz
    limits (-90.0 60.0)
           (-90.0 90.0)
           (-90.0 90.0)
  end
  begin
     id 26 
     name rradius
     direction -1 -4.48968e-011 -4.33218e-027   
     length 3.46485   
     axis 180 30 90   XYZ
    dof rx
    limits (-10.0 170.0)
  end
  begin
     id 27 
     name rwrist
     direction -1 -4.48989e-011 -6.32372e-027   
     length 1.73243   
     axis 3.57107e-015 -90 -90   XYZ
    dof ry
    limits (-180.0 0.0)
  end
  begin
     id 28
     name rhand
     direction -1 -4.48948e-011 -1.26448e-026   
     length 0.608752   
     axis 8.06912e-015 -90 -90   XYZ
    dof rx rz
    limits (-90.0 90.0)
           (-45.0 45.0)
  end
  begin
     id 29
     name rfingers
     direction -1 -4.48962e-011 -2.52913e-026   
     length 0.490792   
     axis 1.61381e-014 -90 -90   XYZ
    dof rx
    limits (0.0 90.0)
  end
  begin
     id 30
     name rthumb
     direction -0.707107 -6.34878e-011 0.707107   
     length 0.704682   
     axis -90 -45 1.62303e-014   XYZ
    dof rx rz
    limits (-45.0 45.0)
           (-45.0 45.0)
  end
:hierarchy
  begin
    root lhipjoint rhipjoint lowerback
    lhipjoint lfemur
    lfemur ltibia
    ltibia lfoot
    lfoot ltoes
    rhipjoint rfemur
    rfemur rtibia
    rtibia rfoot
    rfoot rtoes
    lowerback upperback
    upperback thorax
    thorax lowerneck lclavicle rclavicle
    lowerneck upperneck
    upperneck head
    lclavicle lhumerus
    lhumerus lradius
    lradius lwrist
    lwrist lhand lthumb
    lhand lfingers
    rclavicle rhumerus
    rhumerus rradius
    rradius rwrist
    rwrist rhand rthumb
    rhand rfingers
  end

#!OML:ASF G:\JayActor3\Patient Classification 1\Patient 1\Session 6\male.ASF
:FULLY-SPECIFIED
:DEGREES
366
root 30.7766 15.97 0.825283 182.207 -50.9476 -184.837
lowerback 1.98864 -1.52251 -0.799337
upperback 10.4883 -2.74021 -0.135896
thorax 10.0129 -1.7061 0.0644128
lowerneck 10.3331 3.99545 3.78709
upperneck -14.3077 5.46604 -3.09379
head -5.8285 2.63231 -2.01759
rclavicle 6.58971e-014 -3.08116e-014
rhumerus -20.2078 -0.406673 -80.7561
rradius 25.5514
rwrist 10.7813
rhand -20.0729 -7.3208
rfingers 7.12502
rthumb 6.26942 -37.208
lclavicle 6.58971e-014 -3.08116e-014
lhumerus -12.8465 -13.2011 82.8511
lradius 53.4526
lwrist 30.4126
lhand -7.81714 12.2991
lfingers 7.12502
lthumb 18.0848 41.4784
rfemur -32.109 3.32086 17.1639
rtibia 34.1624
rfoot -19.2954 -14.5126
rtoes -4.15793
lfemur 22.9931 10.0098 -22.0585
ltibia 2.22639e-014
lfoot -10.4993 1.87184
ltoes -9.60945
367
root 30.6759 15.9461 0.736232 182.4 -51.2999 -185.203
lowerback 2.03338 -1.63766 -0.776946
upperback 10.4791 -2.9105 0.0381594
thorax 9.98755 -1.79721 0.227572
lowerneck 10.3169 3.5867 3.57953
upperneck -14.2889 4.8861 -3.00568
head -5.84908 2.35474 -1.91322
rclavicle -1.35174e-014 1.98785e-015
rhumerus -20.3772 -0.715676 -80.3706
rradius 25.1843
rwrist 11.2542
rhand -19.8699 -7.01964
rfingers 7.12502
rthumb 6.46541 -36.901
lclavicle -1.35174e-014 1.98785e-015
lhumerus -13.1804 -13.2054 83.1256
lradius 53.1398
lwrist 30.0756
lhand -7.90297 12.2776
lfingers 7.12502
lthumb 18.0022 41.4645
rfemur -31.8296 3.18286 16.9486
rtibia 34.8396
rfoot -18.9312 -15.1038
rtoes -3.29122
lfemur 23.5943 9.96635 -22.0052
ltibia -8.5875e-014
lfoot -10.3154 1.32125
ltoes -10.0402
368
root 30.5738 15.9298 0.645207 182.601 -51.6649 -185.553
lowerback 2.07579 -1.7516 -0.708139
upperback 10.4454 -3.07714 0.208293
thorax 9.93411 -1.88098 0.362116
lowerneck 10.2892 3.21132 3.44843
upperneck -14.2817 4.3499 -3.00604
head -5.86396 2.10084 -1.85149
rclavicle -8.07066e-014 2.90226e-014
rhumerus -20.6434 -1.03847 -80.0112
rradius 24.9427
rwrist 11.6136
rhand -19.7451 -6.84639
rfingers 7.12502
rthumb 6.58589 -36.724
lclavicle -8.07066e-014 2.90226e-014
lhumerus -13.6028 -13.112 83.4235
lradius 52.7881
lwrist 29.738
lhand -8.05502 12.244
lfingers 7.12502
lthumb 17.8559 41.4443
rfemur -31.5923 3.02281 16.7424
rtibia 35.508
rfoot -18.5352 -15.7638
rtoes -2.27173
lfemur 24.1707 9.90468 -21.9333
ltibia -8.26944e-014
lfoot -10.0454 0.797366
ltoes -10.5687
369
root 30.4698 15.9215 0.552624 182.817 -52.0422 -185.904
lowerback 2.11761 -1.8641 -0.596324
upperback 10.3886 -3.23991 0.376336
thorax 9.85293 -1.95787 0.471932
lowerneck 10.2607 2.86741 3.36706
upperneck -14.2891 3.85174 -3.08826
head -5.87839 1.86874 -1.82628
rclavicle -7.11649e-014 1.94809e-014
rhumerus -20.9864 -1.37028 -79.6619
rradius 24.787
rwrist 11.8981
rhand -19.7058 -6.79437
rfingers 7.12502
rthumb 6.62381 -36.6708
lclavicle -7.11649e-014 1.94809e-014
lhumerus -14.1044 -12.9077 83.7576
lradius 52.3737
lwrist 29.3982
lhand -8.28393 12.1819
lfingers 7.12502
lthumb 17.6356 41.4021
rfemur -31.3992 2.79821 16.5378
rtibia 36.1609
rfoot -18.0971 -16.3824
rtoes -1.17116
lfemur 24.7252 9.82565 -21.854
ltibia -4.13472e-014
lfoot -9.67791 0.298234
ltoes -11.1156
370
root 30.3636 15.9202 0.459046 183.026 -52.4218 -186.232
lowerback 2.1566 -1.97449 -0.424813
upperback 10.314 -3.39974 0.548768
thorax 9.75079 -2.02772 0.554229
lowerneck 10.2245 2.55697 3.30169
upperneck -14.2954 3.39151 -3.23422
head -5.88823 1.659 -1.82623
rclavicle -3.47873e-014 6.36111e-015
rhumerus -21.3776 -1.69565 -79.3126
rradius 24.6805
rwrist 12.1343
rhand -19.6902 -6.76777
rfingers 7.12502
rthumb 6.63891 -36.6437
lclavicle -3.47873e-014 6.36111e-015
lhumerus -14.6647 -12.588 84.1263
lradius 51.8672
lwrist 29.0756
lhand -8.61577 12.0723
lfingers 7.12502
lthumb 17.3163 41.3209
rfemur -31.2369 2.48857 16.3567
rtibia 36.7996
rfoot -17.6136 -16.8768
rtoes -0.14885
lfemur 25.2657 9.74104 -21.7558
ltibia 1.59028e-014
lfoot -9.19619 -0.153988
ltoes -11.8051
371
root 30.2553 15.9239 0.364963 183.233 -52.7871 -186.55
lowerback 2.18776 -2.07734 -0.204813
upperback 10.2282 -3.54991 0.727787
thorax 9.63817 -2.08882 0.617427
lowerneck 10.1531 2.27542 3.23026
upperneck -14.2705 2.96167 -3.42713
head -5.88081 1.46788 -1.84114
rclavicle -1.13307e-014 1.19271e-014
rhumerus -21.7899 -2.01768 -78.948
rradius 24.5918
rwrist 12.3493
rhand -19.6509 -6.73491
rfingers 7.12502
rthumb 6.6768 -36.6096
lclavicle -1.13307e-014 1.19271e-014
lhumerus -15.2608 -12.1569 84.5284
lradius 51.2475
lwrist 28.769
lhand -9.04683 11.9437
lfingers 7.12502
lthumb 16.9014 41.2282
rfemur -31.0787 2.09482 16.1971
rtibia 37.4287
rfoot -17.1349 -17.1745
rtoes 0.749038
lfemur 25.7971 9.6683 -21.6499
ltibia 6.36111e-015
lfoot -8.59295 -0.54306
ltoes -12.6872
372
root 30.145 15.931 0.270538 183.429 -53.1167 -186.853
lowerback 2.21003 -2.16635 0.0494839
upperback 10.1355 -3.68276 0.91968
thorax 9.52186 -2.1394 0.67618
lowerneck 10.0395 2.01679 3.13691
upperneck -14.1927 2.55371 -3.65898
head -5.849 1.2914 -1.86509
rclavicle 3.61788e-014 4.77083e-015
rhumerus -22.2032 -2.31696 -78.5596
rradius 24.5014
rwrist 12.5572
rhand -19.5686 -6.72544
rfingers 7.12502
rthumb 6.75626 -36.5976
lclavicle 3.61788e-014 4.77083e-015
lhumerus -15.8745 -11.6322 84.9601
lradius 50.4908
lwrist 28.484
lhand -9.58807 11.7904
lfingers 7.12502
lthumb 16.3803 41.1187
rfemur -30.8915 1.65893 16.0643
rtibia 38.0471
rfoot -16.702 -17.2954
rtoes 1.41893
lfemur 26.3266 9.62828 -21.5321
ltibia 2.8625e-014
lfoot -7.86025 -0.871206
ltoes -13.6242
